# xmcd
#
# Track frame offsets:
#	150
#	15162
#	27802
#	44507
#	62045
#	76077
#	91857
#	106970
#	118552
#	132932
#	148417
#	164402
#	181737
#	198362
#	212325
#	228007
#
# Disc length: 3216
#
# Revision: 4
# Processed by: cddbd v1.5.1PL0 Copyright (c) Steve Scherf et al.
# Submitted via: audiograbber 1.83.01
# Normalized: r3:DSETVAR1
#
DISCID=c40c8e10
DTITLE=Various Artist - Country Gold '93
DYEAR=1993
DGENRE=Country
TTITLE0=McBride &The Ride - Sacred Ground
TTITLE1=Trishsa Yearwood - Wrong Side of Memphis
TTITLE2=Mark Collie - Even The Man In The Moon Is Crying
TTITLE3=Reba McEntire - Is There Life Out There
TTITLE4=Mark Chesnutt - Bubba Shot The Jukebox
TTITLE5=Tanya Tucker - Down To The Last Teardrop
TTITLE6=Ricky Van Shelton - Somebody Lied
TTITLE7=Chris LeDoux/Garth Brooks - Whatcha Gonna Do With A Cowboy
TTITLE8=Mike Reid - Walk On Faith
TTITLE9=Patricia Conroy - Bad Day For Trains
TTITLE10=Paul Overstreet - Ball And Chain
TTITLE11=Suzy Bogguss - Aces
TTITLE12=Billy Dean - Only The Wind
TTITLE13=George Fox - Fell In Love  And I Can't Get Out
TTITLE14=Rankin Family - Orangedale Whistle
TTITLE15=Marty Stuart - Burn Me Down
EXTD=split out artists from tracks
EXTT0=
EXTT1=
EXTT2=
EXTT3=
EXTT4=
EXTT5=
EXTT6=
EXTT7=
EXTT8=
EXTT9=
EXTT10=
EXTT11=
EXTT12=
EXTT13=
EXTT14=
EXTT15=
PLAYORDER=
